<?xml version="1.0" encoding="UTF-8"?>
<svg width="38px" height="37px" viewBox="0 0 38 37" version="1.1" xmlns="http://www.w3.org/2000/svg" xmlns:xlink="http://www.w3.org/1999/xlink">
    <title>dds</title>
    <g id="Page-1" stroke="none" stroke-width="1" fill="none" fill-rule="evenodd">
        <g id="Artboard" transform="translate(-173.000000, -202.000000)">
            <g id="dds" transform="translate(173.000000, 202.000000)">
                <circle id="Oval" fill="#60DCA0" cx="19.5" cy="18.5" r="18.5"></circle>
                <path d="M12.5493333,22.06 C13.1413333,22.06 13.6973333,21.952 14.2173333,21.736 C14.7373333,21.52 15.1933333,21.224 15.5853333,20.848 C15.9773333,20.472 16.2853333,20.03 16.5093333,19.522 C16.7333333,19.014 16.8453333,18.464 16.8453333,17.872 C16.8453333,17.28 16.7333333,16.728 16.5093333,16.216 C16.2853333,15.704 15.9773333,15.26 15.5853333,14.884 C15.1933333,14.508 14.7373333,14.214 14.2173333,14.002 C13.6973333,13.79 13.1413333,13.684 12.5493333,13.684 L9.64533333,13.684 L9.64533333,22.06 L12.5493333,22.06 Z M12.3573333,20.296 L11.7093333,20.296 L11.7093333,15.46 L12.3573333,15.46 C12.7013333,15.46 13.0193333,15.526 13.3113333,15.658 C13.6033333,15.79 13.8573333,15.968 14.0733333,16.192 C14.2893333,16.416 14.4593333,16.674 14.5833333,16.966 C14.7073333,17.258 14.7693333,17.56 14.7693333,17.872 C14.7693333,18.192 14.7073333,18.498 14.5833333,18.79 C14.4593333,19.082 14.2873333,19.34 14.0673333,19.564 C13.8473333,19.788 13.5913333,19.966 13.2993333,20.098 C13.0073333,20.23 12.6933333,20.296 12.3573333,20.296 Z M20.2844444,22.06 C20.8764444,22.06 21.4324444,21.952 21.9524444,21.736 C22.4724444,21.52 22.9284444,21.224 23.3204444,20.848 C23.7124444,20.472 24.0204444,20.03 24.2444444,19.522 C24.4684444,19.014 24.5804444,18.464 24.5804444,17.872 C24.5804444,17.28 24.4684444,16.728 24.2444444,16.216 C24.0204444,15.704 23.7124444,15.26 23.3204444,14.884 C22.9284444,14.508 22.4724444,14.214 21.9524444,14.002 C21.4324444,13.79 20.8764444,13.684 20.2844444,13.684 L17.3804444,13.684 L17.3804444,22.06 L20.2844444,22.06 Z M20.0924444,20.296 L19.4444444,20.296 L19.4444444,15.46 L20.0924444,15.46 C20.4364444,15.46 20.7544444,15.526 21.0464444,15.658 C21.3384444,15.79 21.5924444,15.968 21.8084444,16.192 C22.0244444,16.416 22.1944444,16.674 22.3184444,16.966 C22.4424444,17.258 22.5044444,17.56 22.5044444,17.872 C22.5044444,18.192 22.4424444,18.498 22.3184444,18.79 C22.1944444,19.082 22.0224444,19.34 21.8024444,19.564 C21.5824444,19.788 21.3264444,19.966 21.0344444,20.098 C20.7424444,20.23 20.4284444,20.296 20.0924444,20.296 Z M27.6115556,22.192 C28.5075556,22.192 29.2515556,21.952 29.8435556,21.472 C30.4355556,20.992 30.7315556,20.308 30.7315556,19.42 C30.7315556,18.724 30.5635556,18.2 30.2275556,17.848 C29.8995556,17.48 29.5035556,17.22 29.0395556,17.068 C28.8075556,16.98 28.5815556,16.896 28.3615556,16.816 C28.1415556,16.736 27.9275556,16.656 27.7195556,16.576 C27.2955556,16.408 27.0835556,16.184 27.0835556,15.904 C27.0835556,15.808 27.1115556,15.718 27.1675556,15.634 C27.2235556,15.55 27.2935556,15.48 27.3775556,15.424 C27.4615556,15.368 27.5575556,15.324 27.6655556,15.292 C27.7735556,15.26 27.8755556,15.244 27.9715556,15.244 C28.2755556,15.244 28.5275556,15.296 28.7275556,15.4 C28.8315556,15.448 28.9955556,15.544 29.2195556,15.688 C29.4435556,15.832 29.7315556,16.028 30.0835556,16.276 L30.0835556,14.008 C30.0115556,13.992 29.7555556,13.904 29.3155556,13.744 C28.8595556,13.576 28.3955556,13.492 27.9235556,13.492 C27.5395556,13.492 27.1675556,13.55 26.8075556,13.666 C26.4475556,13.782 26.1295556,13.952 25.8535556,14.176 C25.5775556,14.4 25.3555556,14.67 25.1875556,14.986 C25.0195556,15.302 24.9355556,15.66 24.9355556,16.06 C24.9355556,16.74 25.0995556,17.256 25.4275556,17.608 C25.7555556,17.952 26.1515556,18.208 26.6155556,18.376 C26.8475556,18.464 27.0755556,18.55 27.2995556,18.634 C27.5235556,18.718 27.7395556,18.804 27.9475556,18.892 C28.3795556,19.06 28.5955556,19.284 28.5955556,19.564 C28.5955556,19.684 28.5635556,19.79 28.4995556,19.882 C28.4355556,19.974 28.3535556,20.052 28.2535556,20.116 C28.1535556,20.18 28.0375556,20.228 27.9055556,20.26 C27.7735556,20.292 27.6435556,20.308 27.5155556,20.308 C26.8835556,20.308 26.1235556,19.96 25.2355556,19.264 L25.2235556,21.556 C25.2955556,21.652 25.5795556,21.784 26.0755556,21.952 C26.5795556,22.112 27.0915556,22.192 27.6115556,22.192 Z" id="DDS" fill="#FFFFFF" fill-rule="nonzero"></path>
                <circle id="Oval" fill="#60DCA0" cx="6" cy="30" r="6"></circle>
            </g>
        </g>
    </g>
</svg>