<?xml version="1.0" encoding="UTF-8"?>
<svg width="38px" height="37px" viewBox="0 0 38 37" version="1.1" xmlns="http://www.w3.org/2000/svg" xmlns:xlink="http://www.w3.org/1999/xlink">
    <title>gif</title>
    <g id="Page-1" stroke="none" stroke-width="1" fill="none" fill-rule="evenodd">
        <g id="Artboard" transform="translate(-173.000000, -59.000000)">
            <g id="gif" transform="translate(173.000000, 59.000000)">
                <circle id="Oval" fill="#88DC60" cx="19.5" cy="18.5" r="18.5"></circle>
                <path d="M16.1793333,22.192 C16.4993333,22.192 16.8213333,22.17 17.1453333,22.126 C17.4693333,22.082 17.7833333,22.02 18.0873333,21.94 C18.3913333,21.86 18.6773333,21.768 18.9453333,21.664 C19.2133333,21.56 19.4513333,21.452 19.6593333,21.34 L19.6593333,17.044 L16.0713333,17.044 L15.4833333,18.796 L17.6193333,18.796 L17.6193333,19.996 C17.5633333,20.052 17.4893333,20.1 17.3973333,20.14 C17.3053333,20.18 17.2053333,20.212 17.0973333,20.236 C16.9893333,20.26 16.8773333,20.278 16.7613333,20.29 C16.6453333,20.302 16.5393333,20.308 16.4433333,20.308 C16.0833333,20.308 15.7433333,20.252 15.4233333,20.14 C15.1033333,20.028 14.8253333,19.866 14.5893333,19.654 C14.3533333,19.442 14.1673333,19.184 14.0313333,18.88 C13.8953333,18.576 13.8273333,18.232 13.8273333,17.848 C13.8273333,17.496 13.8893333,17.17 14.0133333,16.87 C14.1373333,16.57 14.3073333,16.31 14.5233333,16.09 C14.7393333,15.87 14.9973333,15.698 15.2973333,15.574 C15.5973333,15.45 15.9273333,15.388 16.2873333,15.388 C16.6473333,15.388 16.9933333,15.454 17.3253333,15.586 C17.6573333,15.718 17.9553333,15.904 18.2193333,16.144 L19.4193333,14.656 C19.0033333,14.288 18.5093333,14.002 17.9373333,13.798 C17.3653333,13.594 16.7793333,13.492 16.1793333,13.492 C15.5873333,13.484 15.0253333,13.594 14.4933333,13.822 C13.9613333,14.05 13.4913333,14.364 13.0833333,14.764 C12.6753333,15.164 12.3533333,15.63 12.1173333,16.162 C11.8813333,16.694 11.7713333,17.256 11.7873333,17.848 C11.7713333,18.44 11.8813333,19 12.1173333,19.528 C12.3533333,20.056 12.6753333,20.52 13.0833333,20.92 C13.4913333,21.32 13.9613333,21.636 14.4933333,21.868 C15.0253333,22.1 15.5873333,22.208 16.1793333,22.192 Z M20.3864444,22.096 L22.4264444,22.084 L22.4264444,13.684 L20.3864444,13.684 L20.3864444,22.096 Z M23.0935556,22.096 L25.1335556,22.084 L25.1335556,19.12 L27.3895556,19.12 L27.3895556,17.356 L25.1335556,17.356 L25.1335556,15.58 L28.2415556,15.58 L27.6895556,13.684 L23.0935556,13.684 L23.0935556,22.096 Z" id="GIF" fill="#FFFFFF" fill-rule="nonzero"></path>
                <circle id="Oval" fill="#6ADC60" cx="6" cy="30" r="6"></circle>
            </g>
        </g>
    </g>
</svg>