<?xml version="1.0" encoding="UTF-8"?>
<svg width="38px" height="37px" viewBox="0 0 38 37" version="1.1" xmlns="http://www.w3.org/2000/svg" xmlns:xlink="http://www.w3.org/1999/xlink">
    <title>ico</title>
    <g id="Page-1" stroke="none" stroke-width="1" fill="none" fill-rule="evenodd">
        <g id="Artboard" transform="translate(-388.000000, -202.000000)">
            <g id="ico" transform="translate(388.000000, 202.000000)">
                <circle id="Oval" fill="#366B35" cx="19.5" cy="18.5" r="18.5"></circle>
                <g id="ICO" transform="translate(10.000000, 14.000000)" fill="#FFFFFF" fill-rule="nonzero">
                    <polygon id="Path" points="-5.68434189e-14 0.132 2.013 0.132 2.013 8.544 -5.68434189e-14 8.544"></polygon>
                    <path d="M9.086,2.988 C8.83666667,2.644 8.53966667,2.37 8.195,2.166 C7.85033333,1.962 7.50933333,1.86 7.172,1.86 C6.78333333,1.86 6.4295,1.966 6.1105,2.178 C5.7915,2.39 5.54033333,2.682 5.357,3.054 C5.17366667,3.426 5.082,3.84 5.082,4.296 C5.082,4.752 5.17366667,5.166 5.357,5.538 C5.54033333,5.91 5.7915,6.202 6.1105,6.414 C6.4295,6.626 6.78333333,6.732 7.172,6.732 C7.48733333,6.732 7.81733333,6.644 8.162,6.468 C8.50666667,6.292 8.81466667,6.052 9.086,5.748 L10.263,7.128 C9.845,7.608 9.34816667,7.99 8.7725,8.274 C8.19683333,8.558 7.62666667,8.7 7.062,8.7 C6.29933333,8.7 5.61,8.508 4.994,8.124 C4.378,7.74 3.894,7.216 3.542,6.552 C3.19,5.888 3.014,5.144 3.014,4.32 C3.014,3.504 3.19366667,2.768 3.553,2.112 C3.91233333,1.456 4.4055,0.94 5.0325,0.564 C5.6595,0.188 6.36166667,0 7.139,0 C7.711,0 8.27566667,0.13 8.833,0.39 C9.39033333,0.65 9.86333333,1.004 10.252,1.452 L9.086,2.988 Z" id="Path"></path>
                    <path d="M14.795,0 C15.5796667,0 16.2891667,0.188 16.9235,0.564 C17.5578333,0.94 18.0565,1.456 18.4195,2.112 C18.7825,2.768 18.964,3.504 18.964,4.32 C18.964,5.144 18.7825,5.888 18.4195,6.552 C18.0565,7.216 17.5578333,7.74 16.9235,8.124 C16.2891667,8.508 15.5796667,8.7 14.795,8.7 C14.0103333,8.7 13.3008333,8.51 12.6665,8.13 C12.0321667,7.75 11.5335,7.226 11.1705,6.558 C10.8075,5.89 10.626,5.144 10.626,4.32 C10.626,3.504 10.8075,2.768 11.1705,2.112 C11.5335,1.456 12.0321667,0.94 12.6665,0.564 C13.3008333,0.188 14.0103333,0 14.795,0 Z M14.817,1.86 C14.4356667,1.86 14.0818333,1.968 13.7555,2.184 C13.4291667,2.4 13.1706667,2.698 12.98,3.078 C12.7893333,3.458 12.694,3.876 12.694,4.332 C12.694,4.796 12.7911667,5.218 12.9855,5.598 C13.1798333,5.978 13.4383333,6.278 13.761,6.498 C14.0836667,6.718 14.4356667,6.828 14.817,6.828 C15.1983333,6.828 15.5485,6.718 15.8675,6.498 C16.1865,6.278 16.4376667,5.978 16.621,5.598 C16.8043333,5.218 16.896,4.796 16.896,4.332 C16.896,3.876 16.8043333,3.458 16.621,3.078 C16.4376667,2.698 16.1865,2.4 15.8675,2.184 C15.5485,1.968 15.1983333,1.86 14.817,1.86 Z" id="Shape"></path>
                </g>
                <circle id="Oval" fill="#10520F" cx="6" cy="30" r="6"></circle>
            </g>
        </g>
    </g>
</svg>