<?xml version="1.0" encoding="UTF-8"?>
<svg width="38px" height="37px" viewBox="0 0 38 37" version="1.1" xmlns="http://www.w3.org/2000/svg" xmlns:xlink="http://www.w3.org/1999/xlink">
    <title>jpg</title>
    <g id="Page-1" stroke="none" stroke-width="1" fill="none" fill-rule="evenodd">
        <g id="Artboard" transform="translate(-388.000000, -59.000000)">
            <g id="jpg" transform="translate(388.000000, 59.000000)">
                <circle id="Oval" fill="#5EBB31" cx="19.5" cy="18.5" r="18.5"></circle>
                <circle id="Oval" fill="#147A0B" cx="6" cy="30" r="6"></circle>
                <g id="JPG" transform="translate(9.000000, 14.000000)" fill="#FFFFFF" fill-rule="nonzero">
                    <path d="M5.368,5.808 C5.368,6.704 5.12783333,7.4 4.6475,7.896 C4.16716667,8.392 3.51266667,8.64 2.684,8.64 C1.606,8.64 0.711333333,8.188 0,7.284 L0.924,5.784 C1.19533333,6.088 1.474,6.322 1.76,6.486 C2.046,6.65 2.30633333,6.732 2.541,6.732 C2.79033333,6.732 2.9865,6.648 3.1295,6.48 C3.2725,6.312 3.344,6.072 3.344,5.76 L3.344,1.944 L0.704,1.944 L0.704,0.132 L5.368,0.132 L5.368,5.808 Z" id="Path"></path>
                    <path d="M10.12,0.132 C11.1026667,0.132 11.8653333,0.39 12.408,0.906 C12.9506667,1.422 13.222,2.148 13.222,3.084 C13.222,4.076 12.9506667,4.846 12.408,5.394 C11.8653333,5.942 11.1026667,6.216 10.12,6.216 L8.745,6.216 L8.745,8.544 L6.732,8.544 L6.732,0.132 L10.12,0.132 Z M10.021,4.464 C10.4316667,4.464 10.7488333,4.352 10.9725,4.128 C11.1961667,3.904 11.308,3.58 11.308,3.156 C11.308,2.748 11.1961667,2.434 10.9725,2.214 C10.7488333,1.994 10.4316667,1.884 10.021,1.884 L8.745,1.884 L8.745,4.464 L10.021,4.464 Z" id="Shape"></path>
                    <path d="M19.316,4.248 L21.054,4.248 L21.054,7.596 C20.6433333,7.924 20.1391667,8.19 19.5415,8.394 C18.9438333,8.598 18.3773333,8.7 17.842,8.7 C17.0646667,8.7 16.3625,8.51 15.7355,8.13 C15.1085,7.75 14.6153333,7.228 14.256,6.564 C13.8966667,5.9 13.717,5.156 13.717,4.332 C13.717,3.516 13.9021667,2.778 14.2725,2.118 C14.6428333,1.458 15.1525,0.94 15.8015,0.564 C16.4505,0.188 17.1746667,0 17.974,0 C18.546,0 19.118,0.114 19.69,0.342 C20.262,0.57 20.746,0.876 21.142,1.26 L19.998,2.796 C19.7193333,2.508 19.3985,2.28 19.0355,2.112 C18.6725,1.944 18.315,1.86 17.963,1.86 C17.5523333,1.86 17.182,1.968 16.852,2.184 C16.522,2.4 16.2616667,2.696 16.071,3.072 C15.8803333,3.448 15.785,3.868 15.785,4.332 C15.785,4.804 15.8803333,5.23 16.071,5.61 C16.2616667,5.99 16.5256667,6.288 16.863,6.504 C17.2003333,6.72 17.5743333,6.828 17.985,6.828 C18.3736667,6.828 18.8173333,6.692 19.316,6.42 L19.316,4.248 Z" id="Path"></path>
                </g>
            </g>
        </g>
    </g>
</svg>