<?xml version="1.0" encoding="UTF-8"?>
<svg width="38px" height="37px" viewBox="0 0 38 37" version="1.1" xmlns="http://www.w3.org/2000/svg" xmlns:xlink="http://www.w3.org/1999/xlink">
    <title>png</title>
    <g id="Page-1" stroke="none" stroke-width="1" fill="none" fill-rule="evenodd">
        <g id="Artboard" transform="translate(-388.000000, -109.000000)">
            <g id="png" transform="translate(388.000000, 109.000000)">
                <circle id="Oval" fill="#B72C2C" cx="19.5" cy="18.5" r="18.5"></circle>
                <g id="PNG" transform="translate(8.000000, 14.000000)" fill="#FFFFFF" fill-rule="nonzero">
                    <path d="M3.388,0.132 C4.37066667,0.132 5.13333333,0.39 5.676,0.906 C6.21866667,1.422 6.49,2.148 6.49,3.084 C6.49,4.076 6.21866667,4.846 5.676,5.394 C5.13333333,5.942 4.37066667,6.216 3.388,6.216 L2.013,6.216 L2.013,8.544 L5.68434189e-14,8.544 L5.68434189e-14,0.132 L3.388,0.132 Z M3.289,4.464 C3.69966667,4.464 4.01683333,4.352 4.2405,4.128 C4.46416667,3.904 4.576,3.58 4.576,3.156 C4.576,2.748 4.46416667,2.434 4.2405,2.214 C4.01683333,1.994 3.69966667,1.884 3.289,1.884 L2.013,1.884 L2.013,4.464 L3.289,4.464 Z" id="Shape"></path>
                    <polygon id="Path" points="12.749 0.132 14.619 0.132 14.619 8.544 12.859 8.544 9.361 3.516 9.361 8.544 7.48 8.544 7.48 0.132 9.251 0.132 12.76 5.196"></polygon>
                    <path d="M21.23,4.248 L22.968,4.248 L22.968,7.596 C22.5573333,7.924 22.0531667,8.19 21.4555,8.394 C20.8578333,8.598 20.2913333,8.7 19.756,8.7 C18.9786667,8.7 18.2765,8.51 17.6495,8.13 C17.0225,7.75 16.5293333,7.228 16.17,6.564 C15.8106667,5.9 15.631,5.156 15.631,4.332 C15.631,3.516 15.8161667,2.778 16.1865,2.118 C16.5568333,1.458 17.0665,0.94 17.7155,0.564 C18.3645,0.188 19.0886667,0 19.888,0 C20.46,0 21.032,0.114 21.604,0.342 C22.176,0.57 22.66,0.876 23.056,1.26 L21.912,2.796 C21.6333333,2.508 21.3125,2.28 20.9495,2.112 C20.5865,1.944 20.229,1.86 19.877,1.86 C19.4663333,1.86 19.096,1.968 18.766,2.184 C18.436,2.4 18.1756667,2.696 17.985,3.072 C17.7943333,3.448 17.699,3.868 17.699,4.332 C17.699,4.804 17.7943333,5.23 17.985,5.61 C18.1756667,5.99 18.4396667,6.288 18.777,6.504 C19.1143333,6.72 19.4883333,6.828 19.899,6.828 C20.2876667,6.828 20.7313333,6.692 21.23,6.42 L21.23,4.248 Z" id="Path"></path>
                </g>
                <circle id="Oval" fill="#FF8E8E" cx="6" cy="30" r="6"></circle>
            </g>
        </g>
    </g>
</svg>