<?xml version="1.0" encoding="UTF-8"?>
<svg width="38px" height="37px" viewBox="0 0 38 37" version="1.1" xmlns="http://www.w3.org/2000/svg" xmlns:xlink="http://www.w3.org/1999/xlink">
    <title>svg</title>
    <g id="Page-1" stroke="none" stroke-width="1" fill="none" fill-rule="evenodd">
        <g id="Artboard" transform="translate(-388.000000, -158.000000)">
            <g id="svg" transform="translate(388.000000, 158.000000)">
                <circle id="Oval" fill="#6400FF" cx="19.5" cy="18.5" r="18.5"></circle>
                <g id="SVG" transform="translate(8.000000, 14.000000)" fill="#FFFFFF" fill-rule="nonzero">
                    <path d="M5.885,2.68887363 C5.47433333,2.42596154 5.03616667,2.21085165 4.5705,2.04354396 C4.10483333,1.87623626 3.71433333,1.79258242 3.399,1.79258242 C3.14966667,1.79258242 2.9535,1.84237637 2.8105,1.94196429 C2.6675,2.0415522 2.596,2.18695055 2.596,2.37815934 C2.596,2.5614011 2.65833333,2.71476648 2.783,2.83825549 C2.90766667,2.96174451 3.06166667,3.06133242 3.245,3.13701923 C3.42833333,3.21270604 3.69966667,3.3103022 4.059,3.42980769 C4.59433333,3.59711538 5.03616667,3.76442308 5.3845,3.93173077 C5.73283333,4.09903846 6.03166667,4.35597527 6.281,4.70254121 C6.53033333,5.04910714 6.655,5.50123626 6.655,6.05892857 C6.655,6.61662088 6.51933333,7.0926511 6.248,7.48701923 C5.97666667,7.88138736 5.6045,8.17815934 5.1315,8.37733516 C4.6585,8.57651099 4.13233333,8.6760989 3.553,8.6760989 C2.915,8.6760989 2.27883333,8.55460165 1.6445,8.31160714 C1.01016667,8.06861264 0.462,7.73598901 5.68434189e-14,7.31373626 L0.781,5.60480769 C1.16966667,5.97925824 1.62983333,6.28598901 2.1615,6.525 C2.69316667,6.76401099 3.16433333,6.88351648 3.575,6.88351648 C3.87566667,6.88351648 4.11216667,6.82376374 4.2845,6.70425824 C4.45683333,6.58475275 4.543,6.40947802 4.543,6.17843407 C4.543,5.98722527 4.47883333,5.82788462 4.3505,5.70041209 C4.22216667,5.57293956 4.06083333,5.47135989 3.8665,5.39567308 C3.67216667,5.31998626 3.399,5.23035714 3.047,5.12678571 C2.519,4.96744505 2.08266667,4.80611264 1.738,4.64278846 C1.39333333,4.47946429 1.09816667,4.23248626 0.8525,3.9018544 C0.606833333,3.57122253 0.484,3.13104396 0.484,2.58131868 C0.484,2.06346154 0.6105,1.60934066 0.8635,1.21895604 C1.1165,0.828571429 1.47583333,0.527815934 1.9415,0.31668956 C2.40716667,0.105563187 2.948,0 3.564,0 C4.12133333,0 4.67133333,0.0856456044 5.214,0.256936813 C5.75666667,0.428228022 6.23333333,0.65728022 6.644,0.944093407 L5.885,2.68887363 Z" id="Path"></path>
                    <polygon id="Path" points="6.908 0.167307692 9.075 0.167307692 11 6.22623626 12.936 0.167307692 15.004 0.167307692 11.99 8.54464286 9.9 8.54464286"></polygon>
                    <path d="M20.834,4.26634615 L22.572,4.26634615 L22.572,7.60054945 C22.1613333,7.9271978 21.6571667,8.19210165 21.0595,8.39526099 C20.4618333,8.59842033 19.8953333,8.7 19.36,8.7 C18.5826667,8.7 17.8805,8.51078297 17.2535,8.1323489 C16.6265,7.75391484 16.1333333,7.23406593 15.774,6.5728022 C15.4146667,5.91153846 15.235,5.1706044 15.235,4.35 C15.235,3.53736264 15.4201667,2.80240385 15.7905,2.14512363 C16.1608333,1.48784341 16.6705,0.971978022 17.3195,0.597527473 C17.9685,0.223076923 18.6926667,0.0358516484 19.492,0.0358516484 C20.064,0.0358516484 20.636,0.149381868 21.208,0.376442308 C21.78,0.603502747 22.264,0.908241758 22.66,1.29065934 L21.516,2.82032967 C21.2373333,2.53351648 20.9165,2.30645604 20.5535,2.13914835 C20.1905,1.97184066 19.833,1.88818681 19.481,1.88818681 C19.0703333,1.88818681 18.7,1.99574176 18.37,2.21085165 C18.04,2.42596154 17.7796667,2.72074176 17.589,3.09519231 C17.3983333,3.46964286 17.303,3.88791209 17.303,4.35 C17.303,4.82005495 17.3983333,5.24429945 17.589,5.62273352 C17.7796667,6.00116758 18.0436667,6.29793956 18.381,6.51304945 C18.7183333,6.72815934 19.0923333,6.83571429 19.503,6.83571429 C19.8916667,6.83571429 20.3353333,6.70027473 20.834,6.4293956 L20.834,4.26634615 Z" id="Path"></path>
                </g>
                <circle id="Oval" fill="#5905DB" cx="6" cy="30" r="6"></circle>
            </g>
        </g>
    </g>
</svg>